<svg data-bbox="41.538 32.53 118.785 124.818" viewBox="41.538 32.53 118.785 124.818" xmlns="http://www.w3.org/2000/svg" role="img" >
    <g>
        <path d="M116.76 84.12c6.16-1.72 13-3.61 19.91-5.55 5-1.4 9.89-2.86 14.85-4.28 3.43-1 5.44.25 6 3.85.76 4.58 1.39 9.21 2.51 13.71 1 3.85-.6 5.25-4.1 5.58-9.93.91-19.84 1.87-29.76 2.79-1.83.17-3.69.06-5.48.38-5.37.94-6.63 4.06-3.29 8.44 7.07 9.27 14.24 18.46 21.41 27.65 6.51 8.35 6.54 8.35-2.16 14.13-14.54 9.66-11.62 9-19.5-4.67-5.15-8.94-10.1-18-15.14-27-4.26-7.62-6.23-7.83-11.85-1.36Q77.89 131.91 65.49 146c-3.8 4.3-4.77 4.24-8.69.11-2.64-2.78-5.13-5.7-7.92-8.31-3.32-3.1-3.35-5.59.25-8.59 9.35-7.78 18.51-15.78 27.74-23.69 6.53-5.6 6.11-8.08-2-11.22-9.61-3.72-19.23-7.44-28.9-11-4-1.5-5.77-3.45-3.29-7.82 2.3-4 4-8.43 6-12.61 2.3-4.68 3.72-5.1 8.1-2.23 9.06 5.93 18 12 27.08 17.92 5.6 3.69 8.59 2.34 9.1-4.44.91-12.11 1.67-24.22 2.18-36.35.19-4.5 1.8-5.85 6.21-5 4.88.93 9.86 1.34 14.82 1.84 4.47.45 6 2.2 4.63 6.94-3.28 11.67-6.09 23.46-9 35.22-1.28 5.04.14 7.44 4.96 7.35z" fill="#4f4768" data-color="1"></path>
    </g>
</svg>